# xmcd CD database file
#
# Track frame offsets:
#	150
#	15444
#	32844
#	49231
#	63533
#	86249
#	105951
#	119824
#	136988
#	152215
#
# Disc length: 2247 seconds
#
# Revision: 1
# Processed by: cddbd v1.5.2PL0 Copyright (c) Steve Scherf et al.
# Submitted via: CDex 1.70beta2
#
DISCID=8608c50a
DTITLE=Anne Legras -  Railroad Tracks
DYEAR=2007
DGENRE=Blues
TTITLE0=Talking In My Sleep
TTITLE1=Building A Mystery
TTITLE2=L'Encre de tes yeux
TTITLE3=Luka
TTITLE4=Le Rêve du pêcheur
TTITLE5=Mercy Street
TTITLE6=Love Is Strnge
TTITLE7=Blue On Blank
TTITLE8=Love Will Keep Us Alive
TTITLE9=L'Encre de tes yeux - version 2
EXTD=YEAR: 2007
EXTT0=
EXTT1=
EXTT2=
EXTT3=
EXTT4=
EXTT5=
EXTT6=
EXTT7=
EXTT8=
EXTT9=
PLAYORDER=
